<svg width="1600" height="1000" viewBox="0 0 1600 1000" fill="none" xmlns="http://www.w3.org/2000/svg">
<rect width="1600" height="1000" fill="white"/>
<rect x="32" y="98" width="265" height="271.5" rx="10" fill="#C1FFCE"/>
<path d="M34 399C34 393.477 38.4772 389 44 389H1142C1147.52 389 1152 393.477 1152 399V593C1152 598.523 1147.52 603 1142 603H44C38.4772 603 34 598.523 34 593V399Z" fill="#F8F8F8"/>
<path d="M36 633C36 627.477 40.4772 623 46 623H572C577.523 623 582 627.477 582 633V973C582 978.523 577.523 983 572 983H46C40.4772 983 36 978.523 36 973V633Z" fill="#F8F8F8"/>
<path d="M602 633C602 627.477 606.477 623 612 623H1142C1147.52 623 1152 627.477 1152 633V973C1152 978.523 1147.52 983 1142 983H612C606.477 983 602 978.523 602 973V633Z" fill="#F8F8F8"/>
<path d="M1172 108C1172 102.477 1176.48 98 1182 98H1557C1562.52 98 1567 102.477 1567 108V388C1567 393.523 1562.52 398 1557 398H1182C1176.48 398 1172 393.523 1172 388V108Z" fill="#F8F8F8"/>
<path d="M1172 428C1172 422.477 1176.48 418 1182 418H1557C1562.52 418 1567 422.477 1567 428V650C1567 655.523 1562.52 660 1557 660H1182C1176.48 660 1172 655.523 1172 650V428Z" fill="#F8F8F8"/>
<path d="M1172 690C1172 684.477 1176.48 680 1182 680H1557C1562.52 680 1567 684.477 1567 690V973C1567 978.523 1562.52 983 1557 983H1182C1176.48 983 1172 978.523 1172 973V690Z" fill="#F8F8F8"/>
<rect x="317" y="98" width="265" height="181" rx="10" fill="#D3FFFB"/>
<rect x="317" y="299" width="837" height="70" rx="10" fill="#F7F7F7"/>
<rect x="602" y="98" width="265" height="181" rx="10" fill="#D3DFFF"/>
<rect x="887" y="99" width="265" height="181" rx="10" fill="#EED3FF"/>
<path d="M43.775 47.25C42.4083 47.25 41.1 47.0583 39.85 46.675C38.6 46.275 37.6083 45.7667 36.875 45.15L38 42.625C38.7 43.175 39.5667 43.6333 40.6 44C41.6333 44.3667 42.6917 44.55 43.775 44.55C44.6917 44.55 45.4333 44.45 46 44.25C46.5667 44.05 46.9833 43.7833 47.25 43.45C47.5167 43.1 47.65 42.7083 47.65 42.275C47.65 41.7417 47.4583 41.3167 47.075 41C46.6917 40.6667 46.1917 40.4083 45.575 40.225C44.975 40.025 44.3 39.8417 43.55 39.675C42.8167 39.5083 42.075 39.3167 41.325 39.1C40.5917 38.8667 39.9167 38.575 39.3 38.225C38.7 37.8583 38.2083 37.375 37.825 36.775C37.4417 36.175 37.25 35.4083 37.25 34.475C37.25 33.525 37.5 32.6583 38 31.875C38.5167 31.075 39.2917 30.4417 40.325 29.975C41.375 29.4917 42.7 29.25 44.3 29.25C45.35 29.25 46.3917 29.3833 47.425 29.65C48.4583 29.9167 49.3583 30.3 50.125 30.8L49.1 33.325C48.3167 32.8583 47.5083 32.5167 46.675 32.3C45.8417 32.0667 45.0417 31.95 44.275 31.95C43.375 31.95 42.6417 32.0583 42.075 32.275C41.525 32.4917 41.1167 32.775 40.85 33.125C40.6 33.475 40.475 33.875 40.475 34.325C40.475 34.8583 40.6583 35.2917 41.025 35.625C41.4083 35.9417 41.9 36.1917 42.5 36.375C43.1167 36.5583 43.8 36.7417 44.55 36.925C45.3 37.0917 46.0417 37.2833 46.775 37.5C47.525 37.7167 48.2 38 48.8 38.35C49.4167 38.7 49.9083 39.175 50.275 39.775C50.6583 40.375 50.85 41.1333 50.85 42.05C50.85 42.9833 50.5917 43.85 50.075 44.65C49.575 45.4333 48.8 46.0667 47.75 46.55C46.7 47.0167 45.375 47.25 43.775 47.25ZM61.9977 47V44.3L61.8227 43.725V39C61.8227 38.0833 61.5477 37.375 60.9977 36.875C60.4477 36.3583 59.6143 36.1 58.4977 36.1C57.7477 36.1 57.006 36.2167 56.2727 36.45C55.556 36.6833 54.9477 37.0083 54.4477 37.425L53.2227 35.15C53.9393 34.6 54.7893 34.1917 55.7727 33.925C56.7727 33.6417 57.806 33.5 58.8727 33.5C60.806 33.5 62.2977 33.9667 63.3477 34.9C64.4143 35.8167 64.9477 37.2417 64.9477 39.175V47H61.9977ZM57.7977 47.175C56.7977 47.175 55.9227 47.0083 55.1727 46.675C54.4227 46.325 53.8393 45.85 53.4227 45.25C53.0227 44.6333 52.8227 43.9417 52.8227 43.175C52.8227 42.425 52.9977 41.75 53.3477 41.15C53.7143 40.55 54.306 40.075 55.1227 39.725C55.9393 39.375 57.0227 39.2 58.3727 39.2H62.2477V41.275H58.5977C57.531 41.275 56.8143 41.45 56.4477 41.8C56.081 42.1333 55.8977 42.55 55.8977 43.05C55.8977 43.6167 56.1227 44.0667 56.5727 44.4C57.0227 44.7333 57.6477 44.9 58.4477 44.9C59.2143 44.9 59.8977 44.725 60.4977 44.375C61.1143 44.025 61.556 43.5083 61.8227 42.825L62.3477 44.7C62.0477 45.4833 61.506 46.0917 60.7227 46.525C59.956 46.9583 58.981 47.175 57.7977 47.175ZM68.9582 47V28.45H72.0832V47H68.9582ZM82.4598 47.175C80.9764 47.175 79.6764 46.8833 78.5598 46.3C77.4598 45.7 76.6014 44.8833 75.9848 43.85C75.3848 42.8167 75.0848 41.6417 75.0848 40.325C75.0848 38.9917 75.3764 37.8167 75.9598 36.8C76.5598 35.7667 77.3764 34.9583 78.4098 34.375C79.4598 33.7917 80.6514 33.5 81.9848 33.5C83.2848 33.5 84.4431 33.7833 85.4598 34.35C86.4764 34.9167 87.2764 35.7167 87.8598 36.75C88.4431 37.7833 88.7348 39 88.7348 40.4C88.7348 40.5333 88.7264 40.6833 88.7098 40.85C88.7098 41.0167 88.7014 41.175 88.6848 41.325H77.5598V39.25H87.0348L85.8098 39.9C85.8264 39.1333 85.6681 38.4583 85.3348 37.875C85.0014 37.2917 84.5431 36.8333 83.9598 36.5C83.3931 36.1667 82.7348 36 81.9848 36C81.2181 36 80.5431 36.1667 79.9598 36.5C79.3931 36.8333 78.9431 37.3 78.6098 37.9C78.2931 38.4833 78.1348 39.175 78.1348 39.975V40.475C78.1348 41.275 78.3181 41.9833 78.6848 42.6C79.0514 43.2167 79.5681 43.6917 80.2348 44.025C80.9014 44.3583 81.6681 44.525 82.5348 44.525C83.2848 44.525 83.9598 44.4083 84.5598 44.175C85.1598 43.9417 85.6931 43.575 86.1598 43.075L87.8348 45C87.2348 45.7 86.4764 46.2417 85.5598 46.625C84.6598 46.9917 83.6264 47.175 82.4598 47.175ZM95.8615 47.175C94.7449 47.175 93.6699 47.0333 92.6365 46.75C91.6199 46.45 90.8115 46.0917 90.2115 45.675L91.4115 43.3C92.0115 43.6833 92.7282 44 93.5615 44.25C94.3949 44.5 95.2282 44.625 96.0615 44.625C97.0449 44.625 97.7532 44.4917 98.1865 44.225C98.6365 43.9583 98.8615 43.6 98.8615 43.15C98.8615 42.7833 98.7115 42.5083 98.4115 42.325C98.1115 42.125 97.7199 41.975 97.2365 41.875C96.7532 41.775 96.2115 41.6833 95.6115 41.6C95.0282 41.5167 94.4365 41.4083 93.8365 41.275C93.2532 41.125 92.7199 40.9167 92.2365 40.65C91.7532 40.3667 91.3615 39.9917 91.0615 39.525C90.7615 39.0583 90.6115 38.4417 90.6115 37.675C90.6115 36.825 90.8532 36.0917 91.3365 35.475C91.8199 34.8417 92.4949 34.3583 93.3615 34.025C94.2449 33.675 95.2865 33.5 96.4865 33.5C97.3865 33.5 98.2949 33.6 99.2115 33.8C100.128 34 100.887 34.2833 101.487 34.65L100.287 37.025C99.6532 36.6417 99.0115 36.3833 98.3615 36.25C97.7282 36.1 97.0949 36.025 96.4615 36.025C95.5115 36.025 94.8032 36.1667 94.3365 36.45C93.8865 36.7333 93.6615 37.0917 93.6615 37.525C93.6615 37.925 93.8115 38.225 94.1115 38.425C94.4115 38.625 94.8032 38.7833 95.2865 38.9C95.7699 39.0167 96.3032 39.1167 96.8865 39.2C97.4865 39.2667 98.0782 39.375 98.6615 39.525C99.2449 39.675 99.7782 39.8833 100.262 40.15C100.762 40.4 101.162 40.7583 101.462 41.225C101.762 41.6917 101.912 42.3 101.912 43.05C101.912 43.8833 101.662 44.6083 101.162 45.225C100.678 45.8417 99.9865 46.325 99.0865 46.675C98.1865 47.0083 97.1115 47.175 95.8615 47.175ZM120.012 47.25C118.645 47.25 117.387 47.025 116.237 46.575C115.087 46.125 114.087 45.5 113.237 44.7C112.387 43.8833 111.729 42.9333 111.262 41.85C110.795 40.75 110.562 39.55 110.562 38.25C110.562 36.95 110.795 35.7583 111.262 34.675C111.729 33.575 112.387 32.625 113.237 31.825C114.087 31.0083 115.087 30.375 116.237 29.925C117.387 29.475 118.637 29.25 119.987 29.25C121.354 29.25 122.604 29.475 123.737 29.925C124.887 30.375 125.887 31.0083 126.737 31.825C127.587 32.625 128.245 33.575 128.712 34.675C129.179 35.7583 129.412 36.95 129.412 38.25C129.412 39.55 129.179 40.75 128.712 41.85C128.245 42.95 127.587 43.9 126.737 44.7C125.887 45.5 124.887 46.125 123.737 46.575C122.604 47.025 121.362 47.25 120.012 47.25ZM119.987 44.4C120.87 44.4 121.687 44.25 122.437 43.95C123.187 43.65 123.837 43.225 124.387 42.675C124.937 42.1083 125.362 41.4583 125.662 40.725C125.979 39.975 126.137 39.15 126.137 38.25C126.137 37.35 125.979 36.5333 125.662 35.8C125.362 35.05 124.937 34.4 124.387 33.85C123.837 33.2833 123.187 32.85 122.437 32.55C121.687 32.25 120.87 32.1 119.987 32.1C119.104 32.1 118.287 32.25 117.537 32.55C116.804 32.85 116.154 33.2833 115.587 33.85C115.037 34.4 114.604 35.05 114.287 35.8C113.987 36.5333 113.837 37.35 113.837 38.25C113.837 39.1333 113.987 39.95 114.287 40.7C114.604 41.45 115.037 42.1083 115.587 42.675C116.137 43.225 116.787 43.65 117.537 43.95C118.287 44.25 119.104 44.4 119.987 44.4ZM136.107 47L130.382 33.65H133.632L138.557 45.425H136.957L142.057 33.65H145.057L139.332 47H136.107ZM152.919 47.175C151.435 47.175 150.135 46.8833 149.019 46.3C147.919 45.7 147.06 44.8833 146.444 43.85C145.844 42.8167 145.544 41.6417 145.544 40.325C145.544 38.9917 145.835 37.8167 146.419 36.8C147.019 35.7667 147.835 34.9583 148.869 34.375C149.919 33.7917 151.11 33.5 152.444 33.5C153.744 33.5 154.902 33.7833 155.919 34.35C156.935 34.9167 157.735 35.7167 158.319 36.75C158.902 37.7833 159.194 39 159.194 40.4C159.194 40.5333 159.185 40.6833 159.169 40.85C159.169 41.0167 159.16 41.175 159.144 41.325H148.019V39.25H157.494L156.269 39.9C156.285 39.1333 156.127 38.4583 155.794 37.875C155.46 37.2917 155.002 36.8333 154.419 36.5C153.852 36.1667 153.194 36 152.444 36C151.677 36 151.002 36.1667 150.419 36.5C149.852 36.8333 149.402 37.3 149.069 37.9C148.752 38.4833 148.594 39.175 148.594 39.975V40.475C148.594 41.275 148.777 41.9833 149.144 42.6C149.51 43.2167 150.027 43.6917 150.694 44.025C151.36 44.3583 152.127 44.525 152.994 44.525C153.744 44.525 154.419 44.4083 155.019 44.175C155.619 43.9417 156.152 43.575 156.619 43.075L158.294 45C157.694 45.7 156.935 46.2417 156.019 46.625C155.119 46.9917 154.085 47.175 152.919 47.175ZM162.196 47V33.65H165.171V37.325L164.821 36.25C165.221 35.35 165.846 34.6667 166.696 34.2C167.562 33.7333 168.637 33.5 169.921 33.5V36.475C169.787 36.4417 169.662 36.425 169.546 36.425C169.429 36.4083 169.312 36.4 169.196 36.4C168.012 36.4 167.071 36.75 166.371 37.45C165.671 38.1333 165.321 39.1583 165.321 40.525V47H162.196ZM176.61 47L170.885 33.65H174.135L179.06 45.425H177.46L182.56 33.65H185.56L179.835 47H176.61ZM187.513 47V33.65H190.638V47H187.513ZM189.088 31.45C188.505 31.45 188.021 31.2667 187.638 30.9C187.271 30.5333 187.088 30.0917 187.088 29.575C187.088 29.0417 187.271 28.6 187.638 28.25C188.021 27.8833 188.505 27.7 189.088 27.7C189.671 27.7 190.146 27.875 190.513 28.225C190.896 28.5583 191.088 28.9833 191.088 29.5C191.088 30.05 190.905 30.5167 190.538 30.9C190.171 31.2667 189.688 31.45 189.088 31.45ZM201.014 47.175C199.531 47.175 198.231 46.8833 197.114 46.3C196.014 45.7 195.156 44.8833 194.539 43.85C193.939 42.8167 193.639 41.6417 193.639 40.325C193.639 38.9917 193.931 37.8167 194.514 36.8C195.114 35.7667 195.931 34.9583 196.964 34.375C198.014 33.7917 199.206 33.5 200.539 33.5C201.839 33.5 202.998 33.7833 204.014 34.35C205.031 34.9167 205.831 35.7167 206.414 36.75C206.998 37.7833 207.289 39 207.289 40.4C207.289 40.5333 207.281 40.6833 207.264 40.85C207.264 41.0167 207.256 41.175 207.239 41.325H196.114V39.25H205.589L204.364 39.9C204.381 39.1333 204.223 38.4583 203.889 37.875C203.556 37.2917 203.098 36.8333 202.514 36.5C201.948 36.1667 201.289 36 200.539 36C199.773 36 199.098 36.1667 198.514 36.5C197.948 36.8333 197.498 37.3 197.164 37.9C196.848 38.4833 196.689 39.175 196.689 39.975V40.475C196.689 41.275 196.873 41.9833 197.239 42.6C197.606 43.2167 198.123 43.6917 198.789 44.025C199.456 44.3583 200.223 44.525 201.089 44.525C201.839 44.525 202.514 44.4083 203.114 44.175C203.714 43.9417 204.248 43.575 204.714 43.075L206.389 45C205.789 45.7 205.031 46.2417 204.114 46.625C203.214 46.9917 202.181 47.175 201.014 47.175ZM212.997 47L208.097 33.65H211.047L215.247 45.425H213.847L218.247 33.65H220.872L225.147 45.425H223.772L228.097 33.65H230.872L225.947 47H222.947L219.047 36.575H219.972L215.997 47H212.997Z" fill="black"/>
<path d="M40.914 74L36.666 61.4H38.034L42.012 73.262H41.328L45.432 61.4H46.656L50.706 73.262H50.058L54.072 61.4H55.35L51.102 74H49.698L45.828 62.75H46.188L42.3 74H40.914ZM60.8155 74.09C59.8315 74.09 58.9675 73.886 58.2235 73.478C57.4795 73.058 56.8975 72.488 56.4775 71.768C56.0575 71.036 55.8475 70.202 55.8475 69.266C55.8475 68.33 56.0455 67.502 56.4415 66.782C56.8495 66.062 57.4015 65.498 58.0975 65.09C58.8055 64.67 59.5975 64.46 60.4735 64.46C61.3615 64.46 62.1475 64.664 62.8315 65.072C63.5275 65.468 64.0735 66.032 64.4695 66.764C64.8655 67.484 65.0635 68.318 65.0635 69.266C65.0635 69.326 65.0575 69.392 65.0455 69.464C65.0455 69.524 65.0455 69.59 65.0455 69.662H56.8195V68.708H64.3615L63.8575 69.086C63.8575 68.402 63.7075 67.796 63.4075 67.268C63.1195 66.728 62.7235 66.308 62.2195 66.008C61.7155 65.708 61.1335 65.558 60.4735 65.558C59.8255 65.558 59.2435 65.708 58.7275 66.008C58.2115 66.308 57.8095 66.728 57.5215 67.268C57.2335 67.808 57.0895 68.426 57.0895 69.122V69.32C57.0895 70.04 57.2455 70.676 57.5575 71.228C57.8815 71.768 58.3255 72.194 58.8895 72.506C59.4655 72.806 60.1195 72.956 60.8515 72.956C61.4275 72.956 61.9615 72.854 62.4535 72.65C62.9575 72.446 63.3895 72.134 63.7495 71.714L64.4695 72.542C64.0495 73.046 63.5215 73.43 62.8855 73.694C62.2615 73.958 61.5715 74.09 60.8155 74.09ZM67.6648 74V60.644H68.9428V74H67.6648ZM76.4228 74.09C75.4868 74.09 74.6468 73.886 73.9028 73.478C73.1708 73.058 72.5948 72.488 72.1748 71.768C71.7548 71.036 71.5448 70.202 71.5448 69.266C71.5448 68.318 71.7548 67.484 72.1748 66.764C72.5948 66.044 73.1708 65.48 73.9028 65.072C74.6468 64.664 75.4868 64.46 76.4228 64.46C77.2268 64.46 77.9528 64.616 78.6008 64.928C79.2488 65.24 79.7588 65.708 80.1308 66.332L79.1768 66.98C78.8528 66.5 78.4508 66.146 77.9708 65.918C77.4908 65.69 76.9688 65.576 76.4048 65.576C75.7328 65.576 75.1268 65.732 74.5868 66.044C74.0468 66.344 73.6208 66.77 73.3088 67.322C72.9968 67.874 72.8408 68.522 72.8408 69.266C72.8408 70.01 72.9968 70.658 73.3088 71.21C73.6208 71.762 74.0468 72.194 74.5868 72.506C75.1268 72.806 75.7328 72.956 76.4048 72.956C76.9688 72.956 77.4908 72.842 77.9708 72.614C78.4508 72.386 78.8528 72.038 79.1768 71.57L80.1308 72.218C79.7588 72.83 79.2488 73.298 78.6008 73.622C77.9528 73.934 77.2268 74.09 76.4228 74.09ZM86.3352 74.09C85.4232 74.09 84.6012 73.886 83.8692 73.478C83.1492 73.058 82.5792 72.488 82.1592 71.768C81.7392 71.036 81.5292 70.202 81.5292 69.266C81.5292 68.318 81.7392 67.484 82.1592 66.764C82.5792 66.044 83.1492 65.48 83.8692 65.072C84.5892 64.664 85.4112 64.46 86.3352 64.46C87.2712 64.46 88.0992 64.664 88.8192 65.072C89.5512 65.48 90.1212 66.044 90.5292 66.764C90.9492 67.484 91.1592 68.318 91.1592 69.266C91.1592 70.202 90.9492 71.036 90.5292 71.768C90.1212 72.488 89.5512 73.058 88.8192 73.478C88.0872 73.886 87.2592 74.09 86.3352 74.09ZM86.3352 72.956C87.0192 72.956 87.6252 72.806 88.1532 72.506C88.6812 72.194 89.0952 71.762 89.3952 71.21C89.7072 70.646 89.8632 69.998 89.8632 69.266C89.8632 68.522 89.7072 67.874 89.3952 67.322C89.0952 66.77 88.6812 66.344 88.1532 66.044C87.6252 65.732 87.0252 65.576 86.3532 65.576C85.6812 65.576 85.0812 65.732 84.5532 66.044C84.0252 66.344 83.6052 66.77 83.2932 67.322C82.9812 67.874 82.8252 68.522 82.8252 69.266C82.8252 69.998 82.9812 70.646 83.2932 71.21C83.6052 71.762 84.0252 72.194 84.5532 72.506C85.0812 72.806 85.6752 72.956 86.3352 72.956ZM105.576 64.46C106.344 64.46 107.01 64.61 107.574 64.91C108.15 65.198 108.594 65.642 108.906 66.242C109.23 66.842 109.392 67.598 109.392 68.51V74H108.114V68.636C108.114 67.64 107.874 66.89 107.394 66.386C106.926 65.87 106.26 65.612 105.396 65.612C104.748 65.612 104.184 65.75 103.704 66.026C103.236 66.29 102.87 66.68 102.606 67.196C102.354 67.7 102.228 68.312 102.228 69.032V74H100.95V68.636C100.95 67.64 100.71 66.89 100.23 66.386C99.7503 65.87 99.0783 65.612 98.2143 65.612C97.5783 65.612 97.0203 65.75 96.5403 66.026C96.0603 66.29 95.6883 66.68 95.4243 67.196C95.1723 67.7 95.0463 68.312 95.0463 69.032V74H93.7683V64.55H94.9923V67.106L94.7943 66.656C95.0823 65.972 95.5443 65.438 96.1803 65.054C96.8283 64.658 97.5903 64.46 98.4663 64.46C99.3903 64.46 100.176 64.694 100.824 65.162C101.472 65.618 101.892 66.308 102.084 67.232L101.58 67.034C101.856 66.266 102.342 65.648 103.038 65.18C103.746 64.7 104.592 64.46 105.576 64.46ZM116.872 74.09C115.888 74.09 115.024 73.886 114.28 73.478C113.536 73.058 112.954 72.488 112.534 71.768C112.114 71.036 111.904 70.202 111.904 69.266C111.904 68.33 112.102 67.502 112.498 66.782C112.906 66.062 113.458 65.498 114.154 65.09C114.862 64.67 115.654 64.46 116.53 64.46C117.418 64.46 118.204 64.664 118.888 65.072C119.584 65.468 120.13 66.032 120.526 66.764C120.922 67.484 121.12 68.318 121.12 69.266C121.12 69.326 121.114 69.392 121.102 69.464C121.102 69.524 121.102 69.59 121.102 69.662H112.876V68.708H120.418L119.914 69.086C119.914 68.402 119.764 67.796 119.464 67.268C119.176 66.728 118.78 66.308 118.276 66.008C117.772 65.708 117.19 65.558 116.53 65.558C115.882 65.558 115.3 65.708 114.784 66.008C114.268 66.308 113.866 66.728 113.578 67.268C113.29 67.808 113.146 68.426 113.146 69.122V69.32C113.146 70.04 113.302 70.676 113.614 71.228C113.938 71.768 114.382 72.194 114.946 72.506C115.522 72.806 116.176 72.956 116.908 72.956C117.484 72.956 118.018 72.854 118.51 72.65C119.014 72.446 119.446 72.134 119.806 71.714L120.526 72.542C120.106 73.046 119.578 73.43 118.942 73.694C118.318 73.958 117.628 74.09 116.872 74.09ZM133.31 74.09C132.482 74.09 131.738 73.904 131.078 73.532C130.418 73.148 129.896 72.596 129.512 71.876C129.128 71.156 128.936 70.286 128.936 69.266C128.936 68.234 129.128 67.364 129.512 66.656C129.908 65.936 130.436 65.39 131.096 65.018C131.756 64.646 132.494 64.46 133.31 64.46C134.21 64.46 135.014 64.664 135.722 65.072C136.442 65.468 137.006 66.026 137.414 66.746C137.822 67.466 138.026 68.306 138.026 69.266C138.026 70.214 137.822 71.054 137.414 71.786C137.006 72.506 136.442 73.07 135.722 73.478C135.014 73.886 134.21 74.09 133.31 74.09ZM128.432 74V60.644H129.71V67.34L129.53 69.248L129.656 71.156V74H128.432ZM133.22 72.956C133.892 72.956 134.492 72.806 135.02 72.506C135.548 72.194 135.968 71.762 136.28 71.21C136.592 70.646 136.748 69.998 136.748 69.266C136.748 68.522 136.592 67.874 136.28 67.322C135.968 66.77 135.548 66.344 135.02 66.044C134.492 65.732 133.892 65.576 133.22 65.576C132.548 65.576 131.942 65.732 131.402 66.044C130.874 66.344 130.454 66.77 130.142 67.322C129.842 67.874 129.692 68.522 129.692 69.266C129.692 69.998 129.842 70.646 130.142 71.21C130.454 71.762 130.874 72.194 131.402 72.506C131.942 72.806 132.548 72.956 133.22 72.956ZM146.501 74V71.912L146.447 71.57V68.078C146.447 67.274 146.219 66.656 145.763 66.224C145.319 65.792 144.653 65.576 143.765 65.576C143.153 65.576 142.571 65.678 142.019 65.882C141.467 66.086 140.999 66.356 140.615 66.692L140.039 65.738C140.519 65.33 141.095 65.018 141.767 64.802C142.439 64.574 143.147 64.46 143.891 64.46C145.115 64.46 146.057 64.766 146.717 65.378C147.389 65.978 147.725 66.896 147.725 68.132V74H146.501ZM143.243 74.09C142.535 74.09 141.917 73.976 141.389 73.748C140.873 73.508 140.477 73.184 140.201 72.776C139.925 72.356 139.787 71.876 139.787 71.336C139.787 70.844 139.901 70.4 140.129 70.004C140.369 69.596 140.753 69.272 141.281 69.032C141.821 68.78 142.541 68.654 143.441 68.654H146.699V69.608H143.477C142.565 69.608 141.929 69.77 141.569 70.094C141.221 70.418 141.047 70.82 141.047 71.3C141.047 71.84 141.257 72.272 141.677 72.596C142.097 72.92 142.685 73.082 143.441 73.082C144.161 73.082 144.779 72.92 145.295 72.596C145.823 72.26 146.207 71.78 146.447 71.156L146.735 72.038C146.495 72.662 146.075 73.16 145.475 73.532C144.887 73.904 144.143 74.09 143.243 74.09ZM155.12 74.09C154.184 74.09 153.344 73.886 152.6 73.478C151.868 73.058 151.292 72.488 150.872 71.768C150.452 71.036 150.242 70.202 150.242 69.266C150.242 68.318 150.452 67.484 150.872 66.764C151.292 66.044 151.868 65.48 152.6 65.072C153.344 64.664 154.184 64.46 155.12 64.46C155.924 64.46 156.65 64.616 157.298 64.928C157.946 65.24 158.456 65.708 158.828 66.332L157.874 66.98C157.55 66.5 157.148 66.146 156.668 65.918C156.188 65.69 155.666 65.576 155.102 65.576C154.43 65.576 153.824 65.732 153.284 66.044C152.744 66.344 152.318 66.77 152.006 67.322C151.694 67.874 151.538 68.522 151.538 69.266C151.538 70.01 151.694 70.658 152.006 71.21C152.318 71.762 152.744 72.194 153.284 72.506C153.824 72.806 154.43 72.956 155.102 72.956C155.666 72.956 156.188 72.842 156.668 72.614C157.148 72.386 157.55 72.038 157.874 71.57L158.828 72.218C158.456 72.83 157.946 73.298 157.298 73.622C156.65 73.934 155.924 74.09 155.12 74.09ZM162.206 71.552L162.242 69.914L168.128 64.55H169.694L165.536 68.528L164.816 69.14L162.206 71.552ZM161.198 74V60.644H162.476V74H161.198ZM168.524 74L164.582 69.086L165.41 68.096L170.09 74H168.524ZM171.41 76.628L172.202 73.298L172.346 74.072C172.07 74.072 171.836 73.982 171.644 73.802C171.464 73.622 171.374 73.388 171.374 73.1C171.374 72.812 171.464 72.578 171.644 72.398C171.836 72.218 172.064 72.128 172.328 72.128C172.604 72.128 172.826 72.224 172.994 72.416C173.174 72.608 173.264 72.836 173.264 73.1C173.264 73.196 173.258 73.292 173.246 73.388C173.234 73.484 173.21 73.592 173.174 73.712C173.138 73.832 173.09 73.976 173.03 74.144L172.274 76.628H171.41ZM184.454 74.108C183.518 74.108 182.618 73.958 181.754 73.658C180.902 73.346 180.242 72.95 179.774 72.47L180.296 71.444C180.74 71.876 181.334 72.242 182.078 72.542C182.834 72.83 183.626 72.974 184.454 72.974C185.246 72.974 185.888 72.878 186.38 72.686C186.884 72.482 187.25 72.212 187.478 71.876C187.718 71.54 187.838 71.168 187.838 70.76C187.838 70.268 187.694 69.872 187.406 69.572C187.13 69.272 186.764 69.038 186.308 68.87C185.852 68.69 185.348 68.534 184.796 68.402C184.244 68.27 183.692 68.132 183.14 67.988C182.588 67.832 182.078 67.628 181.61 67.376C181.154 67.124 180.782 66.794 180.494 66.386C180.218 65.966 180.08 65.42 180.08 64.748C180.08 64.124 180.242 63.554 180.566 63.038C180.902 62.51 181.412 62.09 182.096 61.778C182.78 61.454 183.656 61.292 184.724 61.292C185.432 61.292 186.134 61.394 186.83 61.598C187.526 61.79 188.126 62.06 188.63 62.408L188.18 63.47C187.64 63.11 187.064 62.846 186.452 62.678C185.852 62.51 185.27 62.426 184.706 62.426C183.95 62.426 183.326 62.528 182.834 62.732C182.342 62.936 181.976 63.212 181.736 63.56C181.508 63.896 181.394 64.28 181.394 64.712C181.394 65.204 181.532 65.6 181.808 65.9C182.096 66.2 182.468 66.434 182.924 66.602C183.392 66.77 183.902 66.92 184.454 67.052C185.006 67.184 185.552 67.328 186.092 67.484C186.644 67.64 187.148 67.844 187.604 68.096C188.072 68.336 188.444 68.66 188.72 69.068C189.008 69.476 189.152 70.01 189.152 70.67C189.152 71.282 188.984 71.852 188.648 72.38C188.312 72.896 187.796 73.316 187.1 73.64C186.416 73.952 185.534 74.108 184.454 74.108ZM197.706 74V71.912L197.652 71.57V68.078C197.652 67.274 197.424 66.656 196.968 66.224C196.524 65.792 195.858 65.576 194.97 65.576C194.358 65.576 193.776 65.678 193.224 65.882C192.672 66.086 192.204 66.356 191.82 66.692L191.244 65.738C191.724 65.33 192.3 65.018 192.972 64.802C193.644 64.574 194.352 64.46 195.096 64.46C196.32 64.46 197.262 64.766 197.922 65.378C198.594 65.978 198.93 66.896 198.93 68.132V74H197.706ZM194.448 74.09C193.74 74.09 193.122 73.976 192.594 73.748C192.078 73.508 191.682 73.184 191.406 72.776C191.13 72.356 190.992 71.876 190.992 71.336C190.992 70.844 191.106 70.4 191.334 70.004C191.574 69.596 191.958 69.272 192.486 69.032C193.026 68.78 193.746 68.654 194.646 68.654H197.904V69.608H194.682C193.77 69.608 193.134 69.77 192.774 70.094C192.426 70.418 192.252 70.82 192.252 71.3C192.252 71.84 192.462 72.272 192.882 72.596C193.302 72.92 193.89 73.082 194.646 73.082C195.366 73.082 195.984 72.92 196.5 72.596C197.028 72.26 197.412 71.78 197.652 71.156L197.94 72.038C197.7 72.662 197.28 73.16 196.68 73.532C196.092 73.904 195.348 74.09 194.448 74.09ZM200.997 77.582C200.613 77.582 200.247 77.528 199.899 77.42C199.539 77.324 199.239 77.174 198.999 76.97L199.449 75.998C199.833 76.322 200.325 76.484 200.925 76.484C201.429 76.484 201.813 76.334 202.077 76.034C202.353 75.734 202.491 75.29 202.491 74.702V64.55H203.769V74.702C203.769 75.578 203.529 76.274 203.049 76.79C202.581 77.318 201.897 77.582 200.997 77.582ZM203.139 62.462C202.875 62.462 202.653 62.372 202.473 62.192C202.293 62.012 202.203 61.796 202.203 61.544C202.203 61.292 202.293 61.082 202.473 60.914C202.653 60.734 202.875 60.644 203.139 60.644C203.403 60.644 203.625 60.728 203.805 60.896C203.985 61.064 204.075 61.274 204.075 61.526C204.075 61.79 203.985 62.012 203.805 62.192C203.637 62.372 203.415 62.462 203.139 62.462ZM207.341 74V64.55H208.619V74H207.341ZM207.989 62.462C207.725 62.462 207.503 62.372 207.323 62.192C207.143 62.012 207.053 61.796 207.053 61.544C207.053 61.292 207.143 61.082 207.323 60.914C207.503 60.734 207.725 60.644 207.989 60.644C208.253 60.644 208.475 60.728 208.655 60.896C208.835 61.064 208.925 61.274 208.925 61.526C208.925 61.79 208.835 62.012 208.655 62.192C208.487 62.372 208.265 62.462 207.989 62.462ZM215.937 74.09C215.037 74.09 214.227 73.886 213.507 73.478C212.799 73.07 212.241 72.506 211.833 71.786C211.425 71.054 211.221 70.214 211.221 69.266C211.221 68.306 211.425 67.466 211.833 66.746C212.241 66.026 212.799 65.468 213.507 65.072C214.227 64.664 215.037 64.46 215.937 64.46C216.765 64.46 217.503 64.646 218.151 65.018C218.811 65.39 219.333 65.936 219.717 66.656C220.113 67.364 220.311 68.234 220.311 69.266C220.311 70.286 220.119 71.156 219.735 71.876C219.351 72.596 218.829 73.148 218.169 73.532C217.521 73.904 216.777 74.09 215.937 74.09ZM216.027 72.956C216.699 72.956 217.299 72.806 217.827 72.506C218.367 72.194 218.787 71.762 219.087 71.21C219.399 70.646 219.555 69.998 219.555 69.266C219.555 68.522 219.399 67.874 219.087 67.322C218.787 66.77 218.367 66.344 217.827 66.044C217.299 65.732 216.699 65.576 216.027 65.576C215.367 65.576 214.773 65.732 214.245 66.044C213.717 66.344 213.297 66.77 212.985 67.322C212.673 67.874 212.517 68.522 212.517 69.266C212.517 69.998 212.673 70.646 212.985 71.21C213.297 71.762 213.717 72.194 214.245 72.506C214.773 72.806 215.367 72.956 216.027 72.956ZM219.591 74V71.156L219.717 69.248L219.537 67.34V60.644H220.815V74H219.591ZM232.829 74.108C231.893 74.108 230.993 73.958 230.129 73.658C229.277 73.346 228.617 72.95 228.149 72.47L228.671 71.444C229.115 71.876 229.709 72.242 230.453 72.542C231.209 72.83 232.001 72.974 232.829 72.974C233.621 72.974 234.263 72.878 234.755 72.686C235.259 72.482 235.625 72.212 235.853 71.876C236.093 71.54 236.213 71.168 236.213 70.76C236.213 70.268 236.069 69.872 235.781 69.572C235.505 69.272 235.139 69.038 234.683 68.87C234.227 68.69 233.723 68.534 233.171 68.402C232.619 68.27 232.067 68.132 231.515 67.988C230.963 67.832 230.453 67.628 229.985 67.376C229.529 67.124 229.157 66.794 228.869 66.386C228.593 65.966 228.455 65.42 228.455 64.748C228.455 64.124 228.617 63.554 228.941 63.038C229.277 62.51 229.787 62.09 230.471 61.778C231.155 61.454 232.031 61.292 233.099 61.292C233.807 61.292 234.509 61.394 235.205 61.598C235.901 61.79 236.501 62.06 237.005 62.408L236.555 63.47C236.015 63.11 235.439 62.846 234.827 62.678C234.227 62.51 233.645 62.426 233.081 62.426C232.325 62.426 231.701 62.528 231.209 62.732C230.717 62.936 230.351 63.212 230.111 63.56C229.883 63.896 229.769 64.28 229.769 64.712C229.769 65.204 229.907 65.6 230.183 65.9C230.471 66.2 230.843 66.434 231.299 66.602C231.767 66.77 232.277 66.92 232.829 67.052C233.381 67.184 233.927 67.328 234.467 67.484C235.019 67.64 235.523 67.844 235.979 68.096C236.447 68.336 236.819 68.66 237.095 69.068C237.383 69.476 237.527 70.01 237.527 70.67C237.527 71.282 237.359 71.852 237.023 72.38C236.687 72.896 236.171 73.316 235.475 73.64C234.791 73.952 233.909 74.108 232.829 74.108ZM244.983 64.46C245.751 64.46 246.423 64.61 246.999 64.91C247.587 65.198 248.043 65.642 248.367 66.242C248.703 66.842 248.871 67.598 248.871 68.51V74H247.593V68.636C247.593 67.64 247.341 66.89 246.837 66.386C246.345 65.87 245.649 65.612 244.749 65.612C244.077 65.612 243.489 65.75 242.985 66.026C242.493 66.29 242.109 66.68 241.833 67.196C241.569 67.7 241.437 68.312 241.437 69.032V74H240.159V60.644H241.437V67.142L241.185 66.656C241.485 65.972 241.965 65.438 242.625 65.054C243.285 64.658 244.071 64.46 244.983 64.46ZM258.245 74V71.912L258.191 71.57V68.078C258.191 67.274 257.963 66.656 257.507 66.224C257.063 65.792 256.397 65.576 255.509 65.576C254.897 65.576 254.315 65.678 253.763 65.882C253.211 66.086 252.743 66.356 252.359 66.692L251.783 65.738C252.263 65.33 252.839 65.018 253.511 64.802C254.183 64.574 254.891 64.46 255.635 64.46C256.859 64.46 257.801 64.766 258.461 65.378C259.133 65.978 259.469 66.896 259.469 68.132V74H258.245ZM254.987 74.09C254.279 74.09 253.661 73.976 253.133 73.748C252.617 73.508 252.221 73.184 251.945 72.776C251.669 72.356 251.531 71.876 251.531 71.336C251.531 70.844 251.645 70.4 251.873 70.004C252.113 69.596 252.497 69.272 253.025 69.032C253.565 68.78 254.285 68.654 255.185 68.654H258.443V69.608H255.221C254.309 69.608 253.673 69.77 253.313 70.094C252.965 70.418 252.791 70.82 252.791 71.3C252.791 71.84 253.001 72.272 253.421 72.596C253.841 72.92 254.429 73.082 255.185 73.082C255.905 73.082 256.523 72.92 257.039 72.596C257.567 72.26 257.951 71.78 258.191 71.156L258.479 72.038C258.239 72.662 257.819 73.16 257.219 73.532C256.631 73.904 255.887 74.09 254.987 74.09ZM262.94 74V64.55H264.218V74H262.94ZM263.588 62.462C263.324 62.462 263.102 62.372 262.922 62.192C262.742 62.012 262.652 61.796 262.652 61.544C262.652 61.292 262.742 61.082 262.922 60.914C263.102 60.734 263.324 60.644 263.588 60.644C263.852 60.644 264.074 60.728 264.254 60.896C264.434 61.064 264.524 61.274 264.524 61.526C264.524 61.79 264.434 62.012 264.254 62.192C264.086 62.372 263.864 62.462 263.588 62.462ZM268.782 71.552L268.818 69.914L274.704 64.55H276.27L272.112 68.528L271.392 69.14L268.782 71.552ZM267.774 74V60.644H269.052V74H267.774ZM275.1 74L271.158 69.086L271.986 68.096L276.666 74H275.1ZM283.409 64.46C284.177 64.46 284.849 64.61 285.425 64.91C286.013 65.198 286.469 65.642 286.793 66.242C287.129 66.842 287.297 67.598 287.297 68.51V74H286.019V68.636C286.019 67.64 285.767 66.89 285.263 66.386C284.771 65.87 284.075 65.612 283.175 65.612C282.503 65.612 281.915 65.75 281.411 66.026C280.919 66.29 280.535 66.68 280.259 67.196C279.995 67.7 279.863 68.312 279.863 69.032V74H278.585V60.644H279.863V67.142L279.611 66.656C279.911 65.972 280.391 65.438 281.051 65.054C281.711 64.658 282.497 64.46 283.409 64.46ZM295.586 66.422C295.322 66.422 295.094 66.326 294.902 66.134C294.722 65.942 294.632 65.708 294.632 65.432C294.632 65.144 294.722 64.91 294.902 64.73C295.094 64.55 295.322 64.46 295.586 64.46C295.85 64.46 296.072 64.55 296.252 64.73C296.444 64.91 296.54 65.144 296.54 65.432C296.54 65.708 296.444 65.942 296.252 66.134C296.072 66.326 295.85 66.422 295.586 66.422ZM295.586 74.09C295.322 74.09 295.094 73.994 294.902 73.802C294.722 73.61 294.632 73.376 294.632 73.1C294.632 72.812 294.722 72.578 294.902 72.398C295.094 72.218 295.322 72.128 295.586 72.128C295.85 72.128 296.072 72.218 296.252 72.398C296.444 72.578 296.54 72.812 296.54 73.1C296.54 73.376 296.444 73.61 296.252 73.802C296.072 73.994 295.85 74.09 295.586 74.09ZM304.147 77.492H302.923C303.643 76.256 304.165 74.948 304.489 73.568C304.825 72.176 304.993 70.676 304.993 69.068C304.993 67.46 304.825 65.966 304.489 64.586C304.165 63.194 303.643 61.88 302.923 60.644H304.147C304.831 61.712 305.353 62.972 305.713 64.424C306.073 65.864 306.253 67.412 306.253 69.068C306.253 70.724 306.073 72.272 305.713 73.712C305.353 75.14 304.831 76.4 304.147 77.492Z" fill="#4C4C4C"/>
</svg>
